<?xml version="1.0" encoding="UTF-8"?>
<!DOCTYPE svg PUBLIC "-//W3C//DTD SVG 1.1//EN" "http://www.w3.org/Graphics/SVG/1.1/DTD/svg11.dtd">
<!-- Creator: CorelDRAW X7 -->
<svg xmlns="http://www.w3.org/2000/svg" xml:space="preserve" width="1000px" height="1000px" version="1.1" style="shape-rendering:geometricPrecision; text-rendering:geometricPrecision; image-rendering:optimizeQuality; fill-rule:evenodd; clip-rule:evenodd"
viewBox="0 0 1000 1000"
 xmlns:xlink="http://www.w3.org/1999/xlink">
 <defs>
  <style type="text/css">
   <![CDATA[
    .fil0 {fill:#2BA02D}
    .fil1 {fill:#C3FE4D}
    .fil2 {fill:#19305A;fill-rule:nonzero}
   ]]>
  </style>
 </defs>
 <g id="Camada_x0020_1">
  <metadata id="CorelCorpID_0Corel-Layer"/>
  <g id="_2242287009936">
   <g>
    <path class="fil0" d="M546 493c-15,5 -30,8 -46,7 -72,-2 -128,-63 -126,-135 1,-42 23,-79 55,-102 -121,134 135,149 117,230z"/>
    <path class="fil1" d="M635 374c-2,50 -32,93 -75,114 64,-97 -198,-83 -124,-230 21,-13 46,-20 73,-19 72,3 128,63 126,135zm-123 -38c-4,15 -18,25 -34,22 -15,-3 -24,-18 -21,-33 3,-15 18,-25 33,-22 15,3 25,18 22,33z"/>
   </g>
   <path class="fil2" d="M333 702c-18,0 -34,-3 -47,-10 -13,-6 -24,-15 -31,-27 -7,-12 -11,-25 -11,-40 0,-20 5,-39 14,-55 10,-16 23,-28 39,-37 17,-9 36,-14 57,-14 17,0 31,3 44,9 12,6 21,14 28,24l-36 29c-9,-14 -22,-21 -39,-21 -11,0 -21,3 -29,8 -9,6 -16,13 -20,22 -5,9 -7,20 -7,31 0,12 3,22 11,29 8,7 18,11 31,11 17,0 31,-7 43,-21l30 29c-10,12 -21,20 -34,25 -12,5 -27,8 -43,8zm152 -140l-54 0 8 -39 157 0 -8 39 -54 0 -27 136 -50 0 28 -136zm248 46c7,3 13,8 17,14 4,6 6,13 6,21 0,18 -7,32 -22,41 -15,10 -34,14 -58,14l-96 0 35 -175 88 0c20,0 35,3 46,10 10,8 15,18 15,31 0,10 -3,19 -8,26 -6,8 -13,14 -23,18zm-77 -49l-6 34 35 0c9,0 16,-2 20,-6 5,-3 7,-8 7,-15 0,-9 -7,-13 -20,-13l-36 0zm23 103c9,0 16,-1 21,-5 5,-3 7,-9 7,-15 0,-5 -2,-9 -5,-12 -4,-2 -9,-3 -15,-3l-44 0 -7 35 43 0z"/>
   <path class="fil2" d="M265 736c-2,0 -4,0 -5,-1 -2,-1 -3,-2 -4,-3 0,-2 -1,-3 -1,-5 0,-2 1,-4 2,-6 1,-2 2,-4 4,-5 2,-1 4,-1 7,-1 2,0 3,0 5,1 1,0 2,1 3,2l-3 3c-1,-1 -3,-2 -5,-2 -2,0 -3,0 -4,1 -2,0 -2,1 -3,3 -1,1 -1,2 -1,4 0,1 0,3 2,3 1,1 2,2 4,2 2,0 4,-1 5,-2l3 2c-2,3 -5,4 -9,4zm15 -21l5 0 -3 17 10 0 -1 4 -15 0 4 -21zm23 21c-2,0 -4,-1 -6,-2 -1,-1 -2,-3 -2,-5 0,-1 0,-2 0,-2l2 -12 5 0 -2 11c0,1 0,2 0,2 0,1 0,2 1,3 1,1 1,1 3,1 1,0 2,-1 3,-1 1,-1 2,-3 2,-5l2 -11 5 0 -2 12c-1,6 -5,9 -11,9zm31 -11c1,0 2,1 2,2 1,0 1,1 1,2 0,2 -1,4 -3,5 -1,1 -4,2 -6,2l-11 0 4 -21 10 0c2,0 4,0 5,1 1,1 2,2 2,4 0,1 -1,2 -1,3 -1,1 -2,2 -3,2zm-9 -6l-1 4 5 0c1,0 2,0 3,0 0,-1 1,-2 1,-2 0,-2 -1,-2 -3,-2l-5 0zm3 13c1,0 2,0 3,-1 1,0 1,-1 1,-2 0,-1 -1,-2 -3,-2l-6 0 -1 5 6 0zm19 -13l-1 4 10 0 -1 4 -9 0 -1 5 11 0 -1 4 -16 0 4 -21 16 0 -1 4 -11 0zm24 -4l9 0c2,0 4,0 5,1 2,1 3,2 4,3 1,1 1,3 1,5 0,2 0,4 -2,6 -1,2 -2,3 -4,4 -2,1 -4,2 -7,2l-10 0 4 -21zm6 17c2,0 3,-1 5,-1 1,-1 2,-2 2,-3 1,-1 1,-3 1,-4 0,-2 0,-3 -1,-4 -1,-1 -3,-1 -5,-1l-4 0 -2 13 4 0zm25 4c-2,0 -4,0 -5,-1 -2,-1 -3,-2 -4,-3 0,-2 -1,-3 -1,-5 0,-2 1,-4 2,-6 1,-2 2,-4 4,-5 2,-1 4,-1 7,-1 2,0 4,0 5,1 2,1 3,2 4,3 1,1 1,3 1,5 0,2 -1,4 -2,6 -1,2 -2,3 -4,4 -2,1 -4,2 -7,2zm1 -4c1,0 2,0 4,-1 1,-1 2,-2 2,-3 1,-1 1,-3 1,-4 0,-2 0,-3 -1,-4 -1,-1 -3,-1 -5,-1 -1,0 -2,0 -3,1 -2,1 -3,2 -3,3 -1,1 -1,2 -1,4 0,1 0,3 1,3 1,1 3,2 5,2zm20 4c-1,0 -3,0 -4,-1 -2,0 -3,-1 -4,-1l2 -4c1,1 2,1 3,2 2,0 3,0 4,0 1,0 2,0 3,-1 1,0 1,-1 1,-1 0,-1 0,-1 -1,-2 0,0 -1,0 -3,-1 -1,0 -2,0 -3,-1 -1,0 -1,-1 -2,-1 -1,-1 -1,-2 -1,-3 0,-2 0,-3 1,-4 1,-1 2,-2 3,-2 2,-1 4,-1 5,-1 2,0 3,0 4,0 2,0 3,1 4,1l-2 4c-1,0 -2,-1 -3,-1 -1,0 -2,-1 -3,-1 -1,0 -2,1 -3,1 -1,1 -1,1 -1,2 0,0 0,1 0,1 1,0 1,1 2,1 0,0 1,0 2,1 1,0 2,0 3,1 1,0 1,1 2,1 1,1 1,2 1,3 0,1 0,3 -1,4 -1,1 -2,2 -4,2 -1,1 -3,1 -5,1zm28 -17l-7 0 1 -4 18 0 -1 4 -6 0 -4 17 -4 0 3 -17zm19 0l-1 4 9 0 0 4 -10 0 -1 5 11 0 -1 4 -15 0 4 -21 15 0 -1 4 -10 0zm34 -4l-4 21 -4 0 -7 -13 -3 13 -5 0 4 -21 4 0 8 13 3 -13 4 0zm5 0l5 0 -4 21 -5 0 4 -21zm13 21c-2,0 -3,0 -5,-1 -1,0 -3,-1 -3,-1l2 -4c0,1 2,1 3,2 1,0 2,0 3,0 2,0 3,0 3,-1 1,0 2,-1 2,-1 0,-1 -1,-1 -1,-2 -1,0 -2,0 -3,-1 -2,0 -3,0 -4,-1 0,0 -1,-1 -2,-1 0,-1 -1,-2 -1,-3 0,-2 1,-3 2,-4 0,-1 1,-2 3,-2 1,-1 3,-1 5,-1 1,0 2,0 4,0 1,0 2,1 3,1l-2 4c-1,0 -2,-1 -2,-1 -1,0 -2,-1 -3,-1 -2,0 -3,1 -4,1 0,1 -1,1 -1,2 0,0 0,1 1,1 0,0 0,1 1,1 0,0 1,0 2,1 1,0 2,0 3,1 1,0 2,1 2,1 1,1 1,2 1,3 0,1 0,3 -1,4 -1,1 -2,2 -3,2 -2,1 -3,1 -5,1zm19 -17l-7 0 1 -4 18 0 -1 4 -7 0 -3 17 -5 0 4 -17zm24 12l-10 0 -2 5 -5 0 13 -21 5 0 5 21 -5 0 -1 -5zm-1 -3l-2 -8 -4 8 6 0zm16 8c-2,0 -3,0 -5,-1 -1,0 -2,-1 -3,-1l2 -4c1,1 2,1 3,2 1,0 2,0 3,0 2,0 3,0 4,-1 0,0 1,-1 1,-1 0,-1 -1,-1 -1,-2 -1,0 -2,0 -3,-1 -1,0 -3,0 -3,-1 -1,0 -2,-1 -3,-1 0,-1 -1,-2 -1,-3 0,-2 1,-3 2,-4 0,-1 1,-2 3,-2 1,-1 3,-1 5,-1 1,0 3,0 4,0 1,0 2,1 3,1l-2 4c-1,0 -1,-1 -2,-1 -1,0 -2,-1 -3,-1 -2,0 -3,1 -4,1 0,1 -1,1 -1,2 0,0 0,1 1,1 0,0 0,1 1,1 0,0 1,0 2,1 1,0 3,0 3,1 1,0 2,1 3,1 0,1 0,2 0,3 0,1 0,3 -1,4 -1,1 -2,2 -3,2 -2,1 -3,1 -5,1zm24 -21l9 0c2,0 3,0 5,1 1,1 3,2 3,3 1,1 2,3 2,5 0,2 -1,4 -2,6 -1,2 -3,3 -4,4 -2,1 -5,2 -7,2l-10 0 4 -21zm6 17c2,0 3,-1 4,-1 1,-1 2,-2 3,-3 1,-1 1,-3 1,-4 0,-2 -1,-3 -2,-4 -1,-1 -2,-1 -4,-1l-4 0 -3 13 5 0zm28 -1l-9 0 -3 5 -5 0 13 -21 5 0 5 21 -5 0 -1 -5zm0 -3l-2 -8 -5 8 7 0zm34 -3c1,0 1,1 2,2 0,0 1,1 1,2 0,2 -1,4 -3,5 -2,1 -4,2 -7,2l-10 0 4 -21 10 0c2,0 4,0 5,1 1,1 2,2 2,4 0,1 -1,2 -1,3 -1,1 -2,2 -3,2zm-9 -6l-1 4 5 0c1,0 2,0 3,0 0,-1 1,-2 1,-2 0,-2 -1,-2 -3,-2l-5 0zm3 13c1,0 2,0 3,-1 1,0 1,-1 1,-2 0,-1 -1,-2 -3,-2l-6 0 -1 5 6 0zm26 -1l-10 0 -2 5 -6 0 14 -21 4 0 5 21 -4 0 -1 -5zm-1 -3l-2 -8 -5 8 7 0zm32 -13l-4 21 -5 0 1 -9 -9 0 -2 9 -4 0 4 -21 5 0 -2 8 9 0 2 -8 5 0zm4 0l5 0 -4 21 -5 0 4 -21zm21 16l-10 0 -3 5 -5 0 14 -21 4 0 5 21 -4 0 -1 -5zm-1 -3l-2 -8 -5 8 7 0z"/>
  </g>
 </g>
</svg>
